G04*
G04 #@! TF.GenerationSoftware,Altium Limited,Altium Designer,24.2.2 (26)*
G04*
G04 Layer_Color=8388736*
%FSLAX26Y26*%
%MOIN*%
G70*
G04*
G04 #@! TF.SameCoordinates,FDBC139A-5E2D-4B48-BD1B-D82F16AABD65*
G04*
G04*
G04 #@! TF.FilePolarity,Negative*
G04*
G01*
G75*
%ADD10R,0.046430X0.159500*%
G36*
X3883923Y2762321D02*
X3884438Y2762219D01*
X3884934Y2762050D01*
X3885404Y2761818D01*
X3885840Y2761527D01*
X3886235Y2761182D01*
X3886580Y2760787D01*
X3886872Y2760351D01*
X3887104Y2759881D01*
X3887272Y2759385D01*
X3887374Y2758870D01*
X3887409Y2758347D01*
Y2456347D01*
X3887374Y2455824D01*
X3887272Y2455309D01*
X3887104Y2454813D01*
X3886872Y2454343D01*
X3886580Y2453907D01*
X3886235Y2453512D01*
X3885840Y2453167D01*
X3885404Y2452876D01*
X3884934Y2452644D01*
X3884438Y2452475D01*
X3883923Y2452373D01*
X3883400Y2452338D01*
X3827600D01*
X3827077Y2452373D01*
X3826562Y2452475D01*
X3826066Y2452644D01*
X3825596Y2452876D01*
X3825160Y2453167D01*
X3824765Y2453512D01*
X3824420Y2453907D01*
X3824128Y2454343D01*
X3823896Y2454813D01*
X3823728Y2455309D01*
X3823626Y2455824D01*
X3823591Y2456347D01*
Y2758347D01*
X3823626Y2758870D01*
X3823728Y2759385D01*
X3823896Y2759881D01*
X3824128Y2760351D01*
X3824420Y2760787D01*
X3824765Y2761182D01*
X3825160Y2761527D01*
X3825596Y2761818D01*
X3826066Y2762050D01*
X3826562Y2762219D01*
X3827077Y2762321D01*
X3827600Y2762356D01*
X3883400D01*
X3883923Y2762321D01*
D02*
G37*
G36*
X3951273Y3352872D02*
X3951787Y3352770D01*
X3952284Y3352602D01*
X3952754Y3352369D01*
X3953190Y3352078D01*
X3953584Y3351733D01*
X3953930Y3351338D01*
X3954222Y3350902D01*
X3954454Y3350432D01*
X3954622Y3349936D01*
X3954724Y3349421D01*
X3954759Y3348898D01*
Y3046898D01*
X3954724Y3046375D01*
X3954622Y3045860D01*
X3954454Y3045364D01*
X3954222Y3044894D01*
X3953930Y3044458D01*
X3953584Y3044064D01*
X3953190Y3043718D01*
X3952754Y3043427D01*
X3952284Y3043195D01*
X3951787Y3043026D01*
X3951273Y3042924D01*
X3950750Y3042889D01*
X3760250D01*
X3759727Y3042924D01*
X3759213Y3043026D01*
X3758716Y3043195D01*
X3758246Y3043427D01*
X3757810Y3043718D01*
X3757416Y3044064D01*
X3757070Y3044458D01*
X3756778Y3044894D01*
X3756546Y3045364D01*
X3756378Y3045860D01*
X3756276Y3046375D01*
X3756241Y3046898D01*
Y3348898D01*
X3756276Y3349421D01*
X3756378Y3349936D01*
X3756546Y3350432D01*
X3756778Y3350902D01*
X3757070Y3351338D01*
X3757416Y3351733D01*
X3757810Y3352078D01*
X3758246Y3352369D01*
X3758716Y3352602D01*
X3759213Y3352770D01*
X3759727Y3352872D01*
X3760250Y3352907D01*
X3950750D01*
X3951273Y3352872D01*
D02*
G37*
G36*
X4018623Y3943423D02*
X4019137Y3943321D01*
X4019634Y3943153D01*
X4020104Y3942921D01*
X4020540Y3942629D01*
X4020934Y3942284D01*
X4021280Y3941889D01*
X4021572Y3941453D01*
X4021803Y3940983D01*
X4021972Y3940486D01*
X4022074Y3939972D01*
X4022109Y3939449D01*
Y3637449D01*
X4022074Y3636926D01*
X4021972Y3636412D01*
X4021803Y3635915D01*
X4021572Y3635445D01*
X4021280Y3635009D01*
X4020934Y3634615D01*
X4020540Y3634269D01*
X4020104Y3633977D01*
X4019634Y3633745D01*
X4019137Y3633577D01*
X4018623Y3633475D01*
X4018100Y3633440D01*
X3692900D01*
X3692377Y3633475D01*
X3691863Y3633577D01*
X3691366Y3633745D01*
X3690896Y3633977D01*
X3690460Y3634269D01*
X3690066Y3634615D01*
X3689720Y3635009D01*
X3689428Y3635445D01*
X3689197Y3635915D01*
X3689028Y3636412D01*
X3688926Y3636926D01*
X3688891Y3637449D01*
Y3939449D01*
X3688926Y3939972D01*
X3689028Y3940486D01*
X3689197Y3940983D01*
X3689428Y3941453D01*
X3689720Y3941889D01*
X3690066Y3942284D01*
X3690460Y3942629D01*
X3690896Y3942921D01*
X3691366Y3943153D01*
X3691863Y3943321D01*
X3692377Y3943423D01*
X3692900Y3943458D01*
X4018100D01*
X4018623Y3943423D01*
D02*
G37*
G36*
X4046523Y4533974D02*
X4047037Y4533872D01*
X4047534Y4533703D01*
X4048004Y4533471D01*
X4048440Y4533180D01*
X4048834Y4532834D01*
X4049180Y4532440D01*
X4049472Y4532004D01*
X4049704Y4531534D01*
X4049872Y4531038D01*
X4049974Y4530523D01*
X4050009Y4530000D01*
Y4228000D01*
X4049974Y4227477D01*
X4049872Y4226962D01*
X4049704Y4226466D01*
X4049472Y4225996D01*
X4049180Y4225560D01*
X4048834Y4225166D01*
X4048440Y4224820D01*
X4048004Y4224529D01*
X4047534Y4224297D01*
X4047037Y4224128D01*
X4046523Y4224026D01*
X4046000Y4223991D01*
X3665000D01*
X3664477Y4224026D01*
X3663963Y4224128D01*
X3663466Y4224297D01*
X3662996Y4224529D01*
X3662560Y4224820D01*
X3662166Y4225166D01*
X3661820Y4225560D01*
X3661528Y4225996D01*
X3661296Y4226466D01*
X3661128Y4226962D01*
X3661026Y4227477D01*
X3660991Y4228000D01*
Y4530000D01*
X3661026Y4530523D01*
X3661128Y4531038D01*
X3661296Y4531534D01*
X3661528Y4532004D01*
X3661820Y4532440D01*
X3662166Y4532834D01*
X3662560Y4533180D01*
X3662996Y4533471D01*
X3663466Y4533703D01*
X3663963Y4533872D01*
X3664477Y4533974D01*
X3665000Y4534009D01*
X4046000D01*
X4046523Y4533974D01*
D02*
G37*
G36*
X4018623Y5124525D02*
X4019137Y5124423D01*
X4019634Y5124255D01*
X4020104Y5124023D01*
X4020540Y5123731D01*
X4020934Y5123386D01*
X4021280Y5122991D01*
X4021572Y5122555D01*
X4021803Y5122085D01*
X4021972Y5121588D01*
X4022074Y5121074D01*
X4022109Y5120551D01*
Y4818551D01*
X4022074Y4818028D01*
X4021972Y4817514D01*
X4021803Y4817017D01*
X4021572Y4816547D01*
X4021280Y4816111D01*
X4020934Y4815717D01*
X4020540Y4815371D01*
X4020104Y4815079D01*
X4019634Y4814847D01*
X4019137Y4814679D01*
X4018623Y4814577D01*
X4018100Y4814542D01*
X3692900D01*
X3692377Y4814577D01*
X3691863Y4814679D01*
X3691366Y4814847D01*
X3690896Y4815079D01*
X3690460Y4815371D01*
X3690066Y4815717D01*
X3689720Y4816111D01*
X3689428Y4816547D01*
X3689197Y4817017D01*
X3689028Y4817514D01*
X3688926Y4818028D01*
X3688891Y4818551D01*
Y5120551D01*
X3688926Y5121074D01*
X3689028Y5121588D01*
X3689197Y5122085D01*
X3689428Y5122555D01*
X3689720Y5122991D01*
X3690066Y5123386D01*
X3690460Y5123731D01*
X3690896Y5124023D01*
X3691366Y5124255D01*
X3691863Y5124423D01*
X3692377Y5124525D01*
X3692900Y5124560D01*
X4018100D01*
X4018623Y5124525D01*
D02*
G37*
G36*
X3951273Y5715076D02*
X3951787Y5714974D01*
X3952284Y5714806D01*
X3952754Y5714574D01*
X3953190Y5714282D01*
X3953584Y5713936D01*
X3953930Y5713542D01*
X3954222Y5713106D01*
X3954454Y5712636D01*
X3954622Y5712140D01*
X3954724Y5711625D01*
X3954759Y5711102D01*
Y5409102D01*
X3954724Y5408579D01*
X3954622Y5408065D01*
X3954454Y5407568D01*
X3954222Y5407098D01*
X3953930Y5406662D01*
X3953584Y5406267D01*
X3953190Y5405922D01*
X3952754Y5405631D01*
X3952284Y5405399D01*
X3951787Y5405230D01*
X3951273Y5405128D01*
X3950750Y5405093D01*
X3760250D01*
X3759727Y5405128D01*
X3759213Y5405230D01*
X3758716Y5405399D01*
X3758246Y5405631D01*
X3757810Y5405922D01*
X3757416Y5406267D01*
X3757070Y5406662D01*
X3756778Y5407098D01*
X3756546Y5407568D01*
X3756378Y5408065D01*
X3756276Y5408579D01*
X3756241Y5409102D01*
Y5711102D01*
X3756276Y5711625D01*
X3756378Y5712140D01*
X3756546Y5712636D01*
X3756778Y5713106D01*
X3757070Y5713542D01*
X3757416Y5713936D01*
X3757810Y5714282D01*
X3758246Y5714574D01*
X3758716Y5714806D01*
X3759213Y5714974D01*
X3759727Y5715076D01*
X3760250Y5715111D01*
X3950750D01*
X3951273Y5715076D01*
D02*
G37*
G36*
X3883923Y6305627D02*
X3884438Y6305525D01*
X3884934Y6305356D01*
X3885404Y6305124D01*
X3885840Y6304833D01*
X3886235Y6304488D01*
X3886580Y6304093D01*
X3886872Y6303657D01*
X3887104Y6303187D01*
X3887272Y6302690D01*
X3887374Y6302176D01*
X3887409Y6301653D01*
Y5999653D01*
X3887374Y5999130D01*
X3887272Y5998615D01*
X3887104Y5998119D01*
X3886872Y5997649D01*
X3886580Y5997213D01*
X3886235Y5996819D01*
X3885840Y5996473D01*
X3885404Y5996181D01*
X3884934Y5995949D01*
X3884438Y5995781D01*
X3883923Y5995679D01*
X3883400Y5995644D01*
X3827600D01*
X3827077Y5995679D01*
X3826562Y5995781D01*
X3826066Y5995949D01*
X3825596Y5996181D01*
X3825160Y5996473D01*
X3824765Y5996819D01*
X3824420Y5997213D01*
X3824128Y5997649D01*
X3823896Y5998119D01*
X3823728Y5998615D01*
X3823626Y5999130D01*
X3823591Y5999653D01*
Y6301653D01*
X3823626Y6302176D01*
X3823728Y6302690D01*
X3823896Y6303187D01*
X3824128Y6303657D01*
X3824420Y6304093D01*
X3824765Y6304488D01*
X3825160Y6304833D01*
X3825596Y6305124D01*
X3826066Y6305356D01*
X3826562Y6305525D01*
X3827077Y6305627D01*
X3827600Y6305662D01*
X3883400D01*
X3883923Y6305627D01*
D02*
G37*
D10*
X3855500Y2383750D02*
D03*
M02*
